:SAMPLES-PER-SECOND 30
:FULLY-SPECIFIED
:DEGREES
2626
root  6.87859 38.224 1.45178 134.482 89.1817 145.275
RightUpLeg  -12.0625 -15.2325 -6.1367
RightLeg  36.4549 -5.90252 -4.93125
RightFoot  -11.121 -0.0764944 0.574936
RightToes  0.000481921 0.542163 -0.142578
Spine  20.5482 0.179026 1.11896
Spine1  15.8741 0.203917 1.10683
HEad  -1.80433 -4.27058 1.58957
LeftShoulder1  0.347543 -3.86525 4.23147
LeftArm  -76.1376 -49.2964 6.37229
LeftForeArm  111.935 -72.7972 -139.68
LeftHand  -0.25398 0.0180481 5.50724
RightShoulder  -0.019465 -3.52983 -11.7576
RightArm  -64.2796 50.1524 0.486743
RightForeArm  74.6189 69.9227 142.523
RightHand  -0.960833 -0.495063 -22.5937
LeftUpLeg  -11.4595 13.2124 -0.487657
LeftLeg  35.459 7.02137 5.7067
LeftFoot  -12.4426 0.0807089 0.625191
LeftToes  1.06245e-005 4.65868e-005 -8.65517e-006
2627
root  6.87206 38.2332 1.44272 137.145 89.1021 147.876
RightUpLeg  -12.0918 -15.1872 -6.152
RightLeg  36.3873 -5.98627 -4.98514
RightFoot  -11.0876 -0.0766368 0.690145
RightToes  0.000481921 0.542163 -0.142578
Spine  20.591 0.207927 1.15025
Spine1  15.6903 0.240402 1.11495
HEad  -1.6617 -4.68661 1.76644
LeftShoulder1  0.35061 -3.90817 4.21542
LeftArm  -76.0518 -49.3521 6.32871
LeftForeArm  111.718 -72.8104 -139.614
LeftHand  -0.25398 0.0180481 5.50724
RightShoulder  -0.0196377 -3.40454 -11.7789
RightArm  -64.066 50.067 0.58476
RightForeArm  74.4503 69.9557 142.442
RightHand  -0.953823 -0.540367 -22.6277
LeftUpLeg  -11.5048 13.1428 -0.558347
LeftLeg  35.3667 7.03129 5.69605
LeftFoot  -12.3709 0.0801852 0.657708
LeftToes  1.06245e-005 4.65868e-005 -8.65517e-006
2628
root  6.86615 38.2441 1.43579 137.323 89.0401 148.023
RightUpLeg  -12.0901 -15.1549 -6.19243
RightLeg  36.3151 -6.03365 -5.00958
RightFoot  -11.0648 -0.0769416 0.798443
RightToes  0.000481921 0.542163 -0.142578
Spine  20.5214 0.254151 1.21697
Spine1  15.7579 0.320164 1.0658
HEad  -1.5751 -4.21162 1.69949
LeftShoulder1  0.356293 -3.98729 4.18541
LeftArm  -76.1224 -49.4019 6.5137
LeftForeArm  111.671 -72.818 -139.588
LeftHand  -0.25398 0.0180481 5.50724
RightShoulder  -0.0195907 -3.36846 -11.8604
RightArm  -64.0642 49.9515 0.560639
RightForeArm  74.0454 69.963 142.405
RightHand  -1.01735 -0.314037 -23.0723
LeftUpLeg  -11.4946 13.1627 -0.617417
LeftLeg  35.2426 7.00413 5.65155
LeftFoot  -12.2991 0.0795756 0.69188
LeftToes  1.06245e-005 4.65868e-005 -8.65517e-006
2629
root  6.86253 38.2572 1.42859 136.76 88.9734 147.442
RightUpLeg  -12.0608 -15.1961 -6.2637
RightLeg  36.2261 -6.03262 -4.99322
RightFoot  -11.0347 -0.0764421 0.828963
RightToes  0.000481921 0.542163 -0.142578
Spine  20.4549 0.275881 1.34165
Spine1  15.8538 0.420924 0.899791
HEad  -1.65117 -3.57809 1.57076
LeftShoulder1  0.350763 -3.96004 4.25046
LeftArm  -76.2395 -49.5373 6.63278
LeftForeArm  112.063 -72.7631 -139.785
LeftHand  -0.25398 0.0180481 5.50724
RightShoulder  -0.0193995 -3.42993 -11.9271
RightArm  -64.1439 49.8838 0.485339
RightForeArm  73.7396 69.9392 142.442
RightHand  -1.06726 -0.144616 -23.4313
LeftUpLeg  -11.448 13.2258 -0.679724
LeftLeg  35.0853 6.94552 5.5776
LeftFoot  -12.2287 0.0789521 0.75049
LeftToes  1.06245e-005 4.65868e-005 -8.65517e-006
2630
root  6.86085 38.2731 1.42059 137.318 88.8993 147.954
RightUpLeg  -12.0373 -15.2452 -6.31776
RightLeg  36.1038 -6.04735 -4.98336
RightFoot  -10.9945 -0.0742189 0.847043
RightToes  0.000481921 0.542163 -0.142578
Spine  20.4592 0.273885 1.47734
Spine1  15.8084 0.490485 0.758231
HEad  -1.76343 -3.29991 1.51759
LeftShoulder1  0.337851 -3.80962 4.34174
LeftArm  -76.3338 -49.7505 6.55898
LeftForeArm  112.472 -72.6899 -140.03
LeftHand  -0.25398 0.0180481 5.50724
RightShoulder  -0.0190609 -3.51394 -11.9835
RightArm  -64.1902 49.9204 0.460817
RightForeArm  73.7448 69.9302 142.462
RightHand  -1.08396 -0.0664626 -23.4536
LeftUpLeg  -11.4225 13.2353 -0.747399
LeftLeg  34.912 6.91168 5.51948
LeftFoot  -12.1527 0.0783749 0.811273
LeftToes  1.06245e-005 4.65868e-005 -8.65517e-006
2631
root  6.85868 38.2913 1.4153 138.589 88.8282 149.156
RightUpLeg  -12.0284 -15.2376 -6.33505
RightLeg  35.9615 -6.11123 -5.00796
RightFoot  -10.9526 -0.0756983 0.919239
RightToes  0.000481921 0.542163 -0.142578
Spine  20.4982 0.290519 1.53774
Spine1  15.685 0.507136 0.803189
HEad  -1.75786 -3.30288 1.51588
LeftShoulder1  0.333977 -3.68547 4.31274
LeftArm  -76.4178 -49.9023 6.51234
LeftForeArm  112.456 -72.6654 -140.088
LeftHand  -0.25398 0.0180481 5.50724
RightShoulder  -0.0185313 -3.56974 -12.0904
RightArm  -64.223 50.0274 0.530816
RightForeArm  73.9986 69.9487 142.434
RightHand  -1.08875 0.00421227 -23.2591
LeftUpLeg  -11.4198 13.202 -0.807429
LeftLeg  34.7317 6.90853 5.48294
LeftFoot  -12.0644 0.0779286 0.852032
LeftToes  1.06245e-005 4.65868e-005 -8.65517e-006
